<svg width="26" height="26" viewBox="0 0 26 26" fill="none" xmlns="http://www.w3.org/2000/svg">
<path d="M20.5837 11.3261C20.5837 17.1859 13.0003 22.2087 13.0003 22.2087C13.0003 22.2087 5.41699 17.1859 5.41699 11.3261C5.41699 9.32792 6.21595 7.41159 7.6381 5.99868C9.06025 4.58576 10.9891 3.79199 13.0003 3.79199C15.0116 3.79199 16.9404 4.58576 18.3626 5.99868C19.7847 7.41159 20.5837 9.32792 20.5837 11.3261Z" stroke="#00AF91" stroke-width="2" stroke-linecap="round" stroke-linejoin="round"/>
<path d="M13.0004 13.8372C14.3965 13.8372 15.5282 12.7128 15.5282 11.3258C15.5282 9.93883 14.3965 8.81445 13.0004 8.81445C11.6044 8.81445 10.4727 9.93883 10.4727 11.3258C10.4727 12.7128 11.6044 13.8372 13.0004 13.8372Z" stroke="#00AF91" stroke-width="2" stroke-linecap="round" stroke-linejoin="round"/>
</svg>
