<svg width="33" height="32" viewBox="0 0 33 32" fill="none" xmlns="http://www.w3.org/2000/svg">
<path d="M22.3854 14.2241C24.8741 14.2241 26.8914 12.2068 26.8914 9.71806C26.8914 7.23066 24.8741 5.21204 22.3854 5.21204" stroke="white" stroke-width="2.5" stroke-linecap="round" stroke-linejoin="round"/>
<path d="M24.4575 19.121C25.2009 19.1715 25.939 19.2781 26.6674 19.4394C27.6774 19.6403 28.8938 20.0544 29.3257 20.9606C29.6017 21.5414 29.6017 22.2179 29.3257 22.7988C28.8951 23.7049 27.6774 24.119 26.6674 24.3268" stroke="white" stroke-width="2.5" stroke-linecap="round" stroke-linejoin="round"/>
<path fill-rule="evenodd" clip-rule="evenodd" d="M13.5993 20.0912C18.6424 20.0912 22.9503 20.8552 22.9503 23.907C22.9503 26.9602 18.6697 27.7502 13.5993 27.7502C8.55612 27.7502 4.24963 26.9876 4.24963 23.9344C4.24963 20.8811 8.52879 20.0912 13.5993 20.0912Z" stroke="white" stroke-width="2.5" stroke-linecap="round" stroke-linejoin="round"/>
<path fill-rule="evenodd" clip-rule="evenodd" d="M13.5992 15.7349C10.2727 15.7349 7.6076 13.0684 7.6076 9.74188C7.6076 6.41669 10.2727 3.75024 13.5992 3.75024C16.9258 3.75024 19.5922 6.41669 19.5922 9.74188C19.5922 13.0684 16.9258 15.7349 13.5992 15.7349Z" stroke="white" stroke-width="2.5" stroke-linecap="round" stroke-linejoin="round"/>
</svg>
