<svg width="18" height="18" viewBox="0 0 18 18" fill="none" xmlns="http://www.w3.org/2000/svg">
<path d="M18 9C18 4.02891 13.9711 0 9 0C4.02891 0 0 4.02891 0 9C0 13.9711 4.02891 18 9 18C9.05273 18 9.10547 18 9.1582 17.9965V10.9934H7.22461V8.73984H9.1582V7.08047C9.1582 5.15742 10.3324 4.10977 12.048 4.10977C12.8707 4.10977 13.5773 4.16953 13.7812 4.19766V6.20859H12.6C11.6684 6.20859 11.4855 6.65156 11.4855 7.30195V8.73633H13.718L13.4262 10.9898H11.4855V17.652C15.2473 16.5727 18 13.1098 18 9Z" fill="#0078FF"/>
</svg>
