<svg width="18" height="19" viewBox="0 0 18 19" fill="none" xmlns="http://www.w3.org/2000/svg">
<g clip-path="url(#clipOne)">
<path d="M3.98918 11.3775L3.36263 13.7165L1.07258 13.7649C0.388195 12.4956 0 11.0432 0 9.49986C0 8.00744 0.362953 6.60006 1.00631 5.36084H1.0068L3.04559 5.73462L3.9387 7.76117C3.75177 8.30613 3.64989 8.89112 3.64989 9.49986C3.64996 10.1605 3.76963 10.7935 3.98918 11.3775Z" fill="#FBBB00"/>
<path d="M17.8428 7.81873C17.9461 8.36316 18 8.92541 18 9.50004C18 10.1444 17.9323 10.7729 17.8032 11.3792C17.3651 13.4422 16.2203 15.2437 14.6344 16.5186L14.6339 16.5181L12.066 16.387L11.7025 14.1182C12.7548 13.5011 13.5772 12.5353 14.0104 11.3792H9.19788V7.81873H14.0806H17.8428Z" fill="#518EF8"/>
<path d="M14.6338 16.5184L14.6343 16.5189C13.092 17.7586 11.1327 18.5003 8.99993 18.5003C5.57251 18.5003 2.59263 16.5846 1.07251 13.7655L3.98911 11.378C4.74915 13.4064 6.70591 14.8504 8.99993 14.8504C9.98596 14.8504 10.9097 14.5839 11.7024 14.1185L14.6338 16.5184Z" fill="#28B446"/>
<path d="M14.7447 2.57197L11.8291 4.95894C11.0087 4.44615 10.039 4.14992 9.00003 4.14992C6.65409 4.14992 4.66073 5.66013 3.93876 7.76131L1.00684 5.36098H1.00635C2.50421 2.47307 5.52167 0.5 9.00003 0.5C11.1838 0.5 13.186 1.27787 14.7447 2.57197Z" fill="#F14336"/>
</g>
<defs>
<clipPath >
<rect width="18" height="18" fill="white" transform="translate(0 0.5)"/>
</clipPath>
</defs>
</svg>
